<?xml version="1.0" encoding="UTF-8"?>
<svg version="1.1" xmlns="http://www.w3.org/2000/svg" width="512" height="512">
<path d="M0 0 C2.8146072 0.00315077 5.62814922 -0.02036941 8.44262695 -0.0456543 C25.51442245 -0.10615396 42.13329659 1.92642347 58.71020508 6.06567383 C59.75772949 6.32533936 60.80525391 6.58500488 61.88452148 6.85253906 C98.9204388 16.2902523 132.62060176 34.6398884 160.42895508 60.80786133 C162.35091011 62.58069916 164.26447747 64.25510791 166.28442383 65.90551758 C168.59967681 67.85437309 170.52571693 69.69878355 172.46020508 72.00317383 C174.31358551 74.18765926 176.16875002 76.33795914 178.13598633 78.42114258 C215.66511051 118.28297283 235.58959173 174.96657327 235.46337891 229.16796875 C235.46022814 231.98257595 235.48374832 234.79611797 235.5090332 237.6105957 C235.56953287 254.6823912 233.53695543 271.30126534 229.39770508 287.87817383 C229.13803955 288.92569824 228.87837402 289.97322266 228.61083984 291.05249023 C219.15387635 328.1639503 200.74690524 361.80642346 174.57739258 389.69848633 C172.62988153 391.79628762 170.77682472 393.91877156 168.96020508 396.12817383 C165.71333106 399.95288136 161.9753432 403.08807798 158.14770508 406.31567383 C157.2221582 407.12907227 156.29661133 407.9424707 155.34301758 408.78051758 C141.46854978 420.90794498 126.50816783 430.86317794 110.14770508 439.31567383 C109.41922363 439.69820313 108.69074219 440.08073242 107.94018555 440.47485352 C76.50525563 456.82296825 41.58704758 464.71352741 6.29541016 464.63134766 C3.48080295 464.62819689 0.66726093 464.65171707 -2.1472168 464.67700195 C-19.2190123 464.73750162 -35.83788643 462.70492418 -52.41479492 458.56567383 C-53.46231934 458.3060083 -54.50984375 458.04634277 -55.58911133 457.77880859 C-92.62502864 448.34109536 -126.3251916 429.99145926 -154.13354492 403.82348633 C-156.05549995 402.0506485 -157.96906731 400.37623974 -159.98901367 398.72583008 C-162.30426665 396.77697457 -164.23030677 394.93256411 -166.16479492 392.62817383 C-168.01817536 390.44368839 -169.87333986 388.29338852 -171.84057617 386.21020508 C-210.30357457 345.35645358 -229.39782441 288.01629353 -229.16479492 232.62817383 C-229.16263977 231.70336212 -229.16048462 230.77855042 -229.15826416 229.82571411 C-229.10706295 216.12139952 -228.70970085 202.76483666 -225.85229492 189.31567383 C-225.54630371 187.83623291 -225.54630371 187.83623291 -225.23413086 186.3269043 C-216.37442735 144.44642809 -197.76859518 106.28642873 -168.36010742 75.03442383 C-166.58726959 73.1124688 -164.91286084 71.19890144 -163.26245117 69.17895508 C-161.31359566 66.8637021 -159.4691852 64.93766198 -157.16479492 63.00317383 C-154.98030949 61.14979339 -152.83000961 59.29462889 -150.74682617 57.32739258 C-110.88499592 19.7982684 -54.20139548 -0.12621282 0 0 Z " fill="#1DD660" transform="translate(252.852294921875,23.684326171875)"/>
<path d="M0 0 C3.90866575 2.69544229 5.62312312 6.08266445 7.1875 10.5 C7.70933927 13.74534279 7.71238693 16.91198352 7.66851807 20.19372559 C7.67193577 21.13977803 7.67535347 22.08583047 7.67887473 23.06055117 C7.68543667 26.21450882 7.66350505 29.3676058 7.64160156 32.52148438 C7.64047272 34.78864522 7.64110766 37.05580753 7.64337158 39.32296753 C7.64451822 45.46705449 7.6210166 51.61082846 7.59307575 57.75484276 C7.56805399 64.1796853 7.56571947 70.60453519 7.56097412 77.02941895 C7.54995821 87.80971714 7.52498123 98.58987867 7.48925781 109.37011719 C7.45251015 120.47102284 7.42421191 131.57189732 7.40722656 142.67285156 C7.40617567 143.35775876 7.40512477 144.04266595 7.40404204 144.74832791 C7.39882167 148.18449903 7.39376689 151.62067037 7.38879442 155.05684185 C7.34736548 183.53797343 7.27664757 212.01898056 7.1875 240.5 C8.36548409 240.49631283 9.54346817 240.49262566 10.75714874 240.48882675 C38.73170046 240.40216085 66.70624169 240.33622069 94.68089953 240.29573868 C98.12548273 240.29073597 101.57006566 240.28555867 105.01464844 240.28027344 C106.04326281 240.27869957 106.04326281 240.27869957 107.09265727 240.27709392 C118.19032276 240.25969744 129.28790521 240.22816396 140.38552147 240.19138882 C151.7760838 240.15395824 163.16658464 240.13205902 174.55721235 240.12364602 C180.95375685 240.11843048 187.35011311 240.10616876 193.74659729 240.07707977 C199.76790379 240.04991896 205.78894461 240.04155651 211.81030655 240.04756927 C214.01938954 240.04646935 216.22848146 240.03851968 218.43751144 240.0231781 C221.45659105 240.00324024 224.47467108 240.00807515 227.49377441 240.01898193 C228.80119748 240.00150488 228.80119748 240.00150488 230.13503313 239.98367476 C235.9509847 240.04036163 240.30916578 241.26640672 245.1875 244.5 C249.07656439 248.63997177 249.48221527 252.75198824 249.40234375 258.21875 C248.95873529 262.92906529 247.06939514 265.70414341 243.625 268.8125 C240.43625276 271.02009425 238.83821948 271.625182 235.02258682 271.63142776 C234.14448923 271.63526891 233.26639164 271.63911005 232.36168504 271.6430676 C231.39108447 271.64220112 230.4204839 271.64133463 229.42047119 271.64044189 C228.39394054 271.64341302 227.36740989 271.64638414 226.30977225 271.6494453 C222.84745725 271.6581623 219.38517669 271.65964308 215.92285156 271.66113281 C213.44956386 271.66575888 210.97627687 271.67078325 208.50299072 271.67617798 C201.76738259 271.68932478 195.03178802 271.69578789 188.29617023 271.70018864 C184.09128251 271.70294961 179.88639709 271.70718673 175.68151093 271.71169281 C164.04232553 271.72388761 152.40314199 271.73418604 140.76395035 271.7375679 C140.01869193 271.73778747 139.27343351 271.73800703 138.5055915 271.73823325 C137.75853356 271.73845153 137.01147562 271.73866981 136.24177957 271.7388947 C134.72791815 271.73933817 133.21405673 271.73978473 131.70019531 271.74023438 C130.94926526 271.7404558 130.1983352 271.74067723 129.42464969 271.74090537 C117.25879975 271.74485278 105.09300973 271.76230407 92.92718294 271.7855939 C80.44045123 271.8093053 67.95374959 271.82176968 55.466995 271.82293582 C48.45467095 271.82385278 41.44242494 271.82961015 34.43012238 271.84775543 C27.83429015 271.86476265 21.23857998 271.86641058 14.64272308 271.85761642 C12.21995141 271.85684394 9.7971719 271.86121646 7.37442017 271.87107468 C4.07025651 271.88373221 0.76662295 271.87795073 -2.53753662 271.86749268 C-3.98005314 271.87957728 -3.98005314 271.87957728 -5.45171142 271.89190602 C-10.66156551 271.85326672 -14.31679787 271.43434559 -18.8125 268.5 C-22.45784896 264.55908221 -23.93411399 261.57015221 -23.94672108 256.23044968 C-23.95117892 255.35446113 -23.95563676 254.47847259 -23.96022969 253.57593894 C-23.96004533 252.61282428 -23.95986097 251.64970962 -23.95967102 250.65740967 C-23.96334771 249.63481371 -23.9670244 248.61221776 -23.9708125 247.55863404 C-23.98186792 244.11558174 -23.98569632 240.6725596 -23.98950195 237.22949219 C-23.99576515 234.76753137 -24.00241182 232.3055715 -24.00941467 229.84361267 C-24.0286545 222.44395113 -24.03924437 215.0442976 -24.04814246 207.64461839 C-24.05252604 204.15982943 -24.05789265 200.67504198 -24.06313133 197.19025421 C-24.08014268 185.60593354 -24.09463702 174.02161381 -24.10188007 162.43728256 C-24.10378996 159.43133289 -24.10571029 156.42538323 -24.10766602 153.41943359 C-24.10814976 152.67232196 -24.1086335 151.92521033 -24.1091319 151.15545896 C-24.11743286 139.05176053 -24.14277126 126.94816091 -24.17524669 114.84450564 C-24.20831752 102.4176285 -24.22632883 89.99080158 -24.22952431 77.56388021 C-24.23168934 70.58672155 -24.24043683 63.60970701 -24.26598549 56.63259125 C-24.28996244 50.06955223 -24.29351802 43.50672601 -24.28322411 36.94363594 C-24.28272752 34.53417919 -24.28908388 32.12470986 -24.30278015 29.71529198 C-24.32042868 26.42672346 -24.31342679 23.13909351 -24.30024719 19.8505249 C-24.31121644 18.89633313 -24.32218568 17.94214136 -24.33348733 16.95903468 C-24.2753015 10.94834784 -23.29853887 7.43442702 -19.8125 2.5 C-14.40206716 -2.41857531 -6.56297287 -3.21769944 0 0 Z " fill="#181415" transform="translate(142.8125,122.5)"/>
<path d="M0 0 C0.86454803 -0.00960754 1.72909607 -0.01921509 2.61984253 -0.02911377 C3.55111969 -0.03336365 4.48239685 -0.03761353 5.44189453 -0.04199219 C6.88267868 -0.0505423 6.88267868 -0.0505423 8.35256958 -0.05926514 C10.38510029 -0.06871176 12.4176463 -0.07524778 14.45019531 -0.07910156 C17.5557736 -0.08880801 20.66069029 -0.11983505 23.76611328 -0.15136719 C25.74136977 -0.15789736 27.71663099 -0.16314777 29.69189453 -0.16699219 C30.61912323 -0.17933899 31.54635193 -0.19168579 32.50167847 -0.20440674 C37.36777586 -0.18763738 40.78436747 -0.0820751 44.69970703 3.16113281 C45.89364322 5.54900519 45.84532347 7.06493851 45.87670898 9.73095703 C45.89596184 11.15285843 45.89596184 11.15285843 45.91560364 12.60348511 C45.92299057 13.63055573 45.9303775 14.65762634 45.93798828 15.71582031 C45.94606003 16.76891388 45.95413177 17.82200745 45.96244812 18.90701294 C45.97629398 21.13802439 45.98701388 23.36905708 45.99487305 25.60009766 C46.01210234 29.01538059 46.05598669 32.42969983 46.10009766 35.84472656 C46.11022289 38.01008401 46.11873952 40.17544971 46.12548828 42.34082031 C46.14299637 43.36384247 46.16050446 44.38686462 46.17854309 45.44088745 C46.15692473 52.49219337 46.15692473 52.49219337 43.8918457 55.80615234 C40.6506597 57.80955833 38.42740698 57.69366138 34.69970703 57.16113281 C32.03363866 55.1049261 30.83920839 53.94924048 30.24560547 50.59570312 C30.26655273 49.65307617 30.2875 48.71044922 30.30908203 47.73925781 C30.32197266 46.71445313 30.33486328 45.68964844 30.34814453 44.63378906 C30.39841797 43.03857422 30.39841797 43.03857422 30.44970703 41.41113281 C30.46775391 40.3321875 30.48580078 39.25324219 30.50439453 38.14160156 C30.55149288 35.48054493 30.61725103 32.82129027 30.69970703 30.16113281 C27.31427674 33.37375692 24.47313698 36.90734159 21.63720703 40.59863281 C17.53990564 45.87406318 13.33289122 51.0256697 8.98681641 56.09741211 C4.52396859 61.32184076 0.21727196 66.6695508 -4.06152344 72.04541016 C-4.58504395 72.69719238 -5.10856445 73.34897461 -5.64794922 74.02050781 C-6.34416382 74.89400879 -6.34416382 74.89400879 -7.05444336 75.78515625 C-8.30029297 77.16113281 -8.30029297 77.16113281 -10.30029297 78.16113281 C-18.95793974 78.00571571 -26.28780523 74.59165701 -34.11279297 71.22363281 C-35.43461549 70.66594079 -36.75687871 70.10929209 -38.07958984 69.55371094 C-48.15576814 65.30205929 -48.15576814 65.30205929 -52.30029297 63.16113281 C-52.45522217 63.7336377 -52.61015137 64.30614258 -52.76977539 64.89599609 C-54.84064717 72.19073421 -57.62787116 79.07267265 -60.61279297 86.03613281 C-61.07363281 87.13054687 -61.53447266 88.22496094 -62.00927734 89.35253906 C-65.16565079 96.77155315 -68.63129634 103.9837418 -72.30029297 111.16113281 C-72.83307861 112.24507324 -73.36586426 113.32901367 -73.91479492 114.44580078 C-75.30029297 117.16113281 -75.30029297 117.16113281 -76.30029297 118.16113281 C-81.20008983 118.64849229 -83.35247141 118.73831037 -87.61669922 116.14160156 C-88.71406849 115.22874127 -89.79561813 114.29661546 -90.86279297 113.34863281 C-92.0652447 112.3436604 -93.26974755 111.3411381 -94.47607422 110.34082031 C-95.09562988 109.8197168 -95.71518555 109.29861328 -96.35351562 108.76171875 C-99.66098252 106.04241188 -103.09939048 103.50674653 -106.55029297 100.97363281 C-107.19426025 100.49240967 -107.83822754 100.01118652 -108.50170898 99.51538086 C-111.57691716 96.99867038 -111.57691716 96.99867038 -115.30029297 96.16113281 C-116.81448427 98.40516433 -118.19691877 100.63471309 -119.55029297 102.97363281 C-120.15635376 104.00097534 -120.15635376 104.00097534 -120.7746582 105.04907227 C-123.05584049 108.93894958 -125.24386681 112.86762002 -127.36279297 116.84863281 C-130.03095161 121.82919561 -133.0847603 126.47993473 -136.27294922 131.14160156 C-138.70406497 134.76251192 -141.00251884 138.45474606 -143.30029297 142.16113281 C-144.37564141 143.88259468 -145.45117169 145.60394297 -146.52685547 147.32519531 C-147.65987893 149.14537651 -148.79268847 150.96569088 -149.92529297 152.78613281 C-150.49763672 153.70136719 -151.06998047 154.61660156 -151.65966797 155.55957031 C-153.93710011 159.22464715 -156.13336388 162.82504395 -158.05419922 166.69238281 C-159.65122365 169.8563936 -161.0499606 170.80052857 -164.30029297 172.16113281 C-167.90660131 172.67631972 -169.58176501 172.61493994 -172.67529297 170.66113281 C-174.96827797 167.13346359 -175.0958196 164.18802458 -174.30029297 160.16113281 C-172.41464105 156.14893072 -170.0049725 152.53316685 -167.55029297 148.84863281 C-166.87087646 147.79627441 -166.19145996 146.74391602 -165.49145508 145.65966797 C-164.10328082 143.51054088 -162.70802519 141.36597101 -161.30566406 139.22607422 C-158.44714208 134.85720582 -155.65067989 130.45028711 -152.86279297 126.03613281 C-152.37875 125.27349121 -151.89470703 124.51084961 -151.39599609 123.72509766 C-147.14246823 116.99229547 -143.16289011 110.12516825 -139.30029297 103.16113281 C-138.64029297 103.16113281 -137.98029297 103.16113281 -137.30029297 103.16113281 C-136.22504103 100.50884469 -135.20573146 97.87744827 -134.30029297 95.16113281 C-133.64029297 95.16113281 -132.98029297 95.16113281 -132.30029297 95.16113281 C-132.05021484 94.30003906 -131.80013672 93.43894531 -131.54248047 92.55175781 C-130.21986574 88.94160189 -128.55362745 86.10765026 -126.42529297 82.91113281 C-125.40822266 81.35652344 -125.40822266 81.35652344 -124.37060547 79.77050781 C-121.38088081 76.00232654 -121.38088081 76.00232654 -118.30029297 75.16113281 C-113.13069978 75.34576114 -109.80656878 77.50587719 -105.80029297 80.53613281 C-104.90866455 81.19137939 -104.90866455 81.19137939 -103.99902344 81.85986328 C-97.31670124 86.80810973 -90.794463 91.96974461 -84.30029297 97.16113281 C-80.88228268 89.61065878 -77.72981525 81.96515458 -74.61279297 74.28613281 C-74.11457031 73.06410156 -73.61634766 71.84207031 -73.10302734 70.58300781 C-70.56718939 64.42225748 -70.56718939 64.42225748 -68.30029297 58.16113281 C-67.64029297 58.16113281 -66.98029297 58.16113281 -66.30029297 58.16113281 C-66.13013672 57.55785156 -65.95998047 56.95457031 -65.78466797 56.33300781 C-63.24041851 47.9423979 -63.24041851 47.9423979 -59.30029297 45.16113281 C-54.48729648 43.42079704 -50.99162552 45.14117672 -46.55029297 47.09082031 C-45.81456055 47.40060822 -45.07882812 47.71039612 -44.32080078 48.02957153 C-41.97519358 49.01948221 -39.63759936 50.02679766 -37.30029297 51.03613281 C-34.9618648 52.0353582 -32.62192408 53.03077429 -30.27978516 54.02127075 C-28.82486658 54.63766345 -27.37226063 55.259552 -25.92236328 55.88766479 C-20.76826574 58.102036 -20.76826574 58.102036 -15.30029297 59.16113281 C-12.95149575 57.39796585 -12.95149575 57.39796585 -10.92529297 54.78613281 C-10.14154297 53.85671875 -9.35779297 52.92730469 -8.55029297 51.96972656 C-6.07988857 48.88600996 -3.63853245 45.78579632 -1.24560547 42.64160156 C1.57525254 39.04472438 4.54704671 35.58053725 7.52929688 32.11694336 C11.40922581 27.58512353 15.06397898 22.8902331 18.69970703 18.16113281 C18.02915283 18.14655029 17.35859863 18.13196777 16.66772461 18.11694336 C13.61531881 18.04224981 10.56398119 17.94565983 7.51220703 17.84863281 C6.45710937 17.82607422 5.40201172 17.80351562 4.31494141 17.78027344 C3.29335938 17.74482422 2.27177734 17.709375 1.21923828 17.67285156 C-0.18684692 17.63357544 -0.18684692 17.63357544 -1.62133789 17.59350586 C-5.07080857 17.03677456 -7.81047076 15.65095502 -10.30029297 13.16113281 C-10.76793389 6.0296088 -10.76793389 6.0296088 -8.98779297 2.72363281 C-6.23081787 0.17087809 -3.58906246 0.03224862 0 0 Z " fill="#181816" transform="translate(341.30029296875,167.8388671875)"/>
<path d="M0 0 C0.66 0 1.32 0 2 0 C1.44449305 3.59905908 0.25112752 4.99909799 -2.5625 7.25 C-3.20316406 7.77078125 -3.84382813 8.2915625 -4.50390625 8.828125 C-4.99761719 9.21484375 -5.49132812 9.6015625 -6 10 C-4.26978364 6.44687712 -2.32923059 3.20269206 0 0 Z " fill="#1CB754" transform="translate(369,199)"/>
</svg>
